<svg width="24" height="24" viewBox="0 0 24 24" class="index-module_icon__2Tvzk header-block_call-center_icon index-module_sizeSm__29don"><path d="M10.5 15.75V9.04688C10.5 8.20312 9.79688 7.54688 9 7.54688H6.75C5.0625 7.54688 3.75 8.90625 3.75 10.5469V14.25C3.75 15.9375 5.0625 17.25 6.75 17.25H9C9.79688 17.25 10.5 16.5938 10.5 15.75ZM8.25 15H6.75C6.32812 15 6 14.6719 6 14.25V10.5469C6 10.125 6.32812 9.79688 6.75 9.79688H8.25V15ZM12 0C5.29688 0 0.1875 5.57812 0 12V12.75C0 13.1719 0.328125 13.5 0.75 13.5H1.5C1.875 13.5 2.25 13.1719 2.25 12.75V12C2.25 6.65625 6.60938 2.25 12 2.25C17.3438 2.25 21.75 6.65625 21.75 12H21.7031C21.7031 12.1406 21.75 19.7812 21.75 19.7812C21.75 20.9062 20.8594 21.75 19.7344 21.75H15C15 20.5312 13.9688 19.5 12.75 19.5H11.25C9.98438 19.5 9 20.5312 9 21.75C9 23.0156 9.98438 24 11.25 24H19.7344C22.0781 24 24 22.125 24 19.7812V12C23.7656 5.57812 18.6562 0 12 0ZM17.25 17.25C18.8906 17.25 20.25 15.9375 20.25 14.25V10.5469C20.25 8.90625 18.8906 7.54688 17.25 7.54688H15C14.1562 7.54688 13.5 8.20312 13.5 9.04688V15.75C13.5 16.5938 14.1562 17.25 15 17.25H17.25ZM15.75 9.79688H17.25C17.625 9.79688 18 10.125 18 10.5469V14.25C18 14.6719 17.625 15 17.25 15H15.75V9.79688Z"></path></svg>
<path d="M10.5 15.75V9.04688C10.5 8.20312 9.79688 7.54688 9 7.54688H6.75C5.0625 7.54688 3.75 8.90625 3.75 10.5469V14.25C3.75 15.9375 5.0625 17.25 6.75 17.25H9C9.79688 17.25 10.5 16.5938 10.5 15.75ZM8.25 15H6.75C6.32812 15 6 14.6719 6 14.25V10.5469C6 10.125 6.32812 9.79688 6.75 9.79688H8.25V15ZM12 0C5.29688 0 0.1875 5.57812 0 12V12.75C0 13.1719 0.328125 13.5 0.75 13.5H1.5C1.875 13.5 2.25 13.1719 2.25 12.75V12C2.25 6.65625 6.60938 2.25 12 2.25C17.3438 2.25 21.75 6.65625 21.75 12H21.7031C21.7031 12.1406 21.75 19.7812 21.75 19.7812C21.75 20.9062 20.8594 21.75 19.7344 21.75H15C15 20.5312 13.9688 19.5 12.75 19.5H11.25C9.98438 19.5 9 20.5312 9 21.75C9 23.0156 9.98438 24 11.25 24H19.7344C22.0781 24 24 22.125 24 19.7812V12C23.7656 5.57812 18.6562 0 12 0ZM17.25 17.25C18.8906 17.25 20.25 15.9375 20.25 14.25V10.5469C20.25 8.90625 18.8906 7.54688 17.25 7.54688H15C14.1562 7.54688 13.5 8.20312 13.5 9.04688V15.75C13.5 16.5938 14.1562 17.25 15 17.25H17.25ZM15.75 9.79688H17.25C17.625 9.79688 18 10.125 18 10.5469V14.25C18 14.6719 17.625 15 17.25 15H15.75V9.79688Z"></path>
</svg>